<mxfile host="app.diagrams.net" modified="2023-11-22T15:31:53.324Z" agent="Mozilla/5.0 (X11; Linux x86_64; rv:120.0) Gecko/20100101 Firefox/120.0" version="22.1.3" etag="36EAsYs6OAIB6E8Epo2T" type="github">
  <diagram name="Page-1" id="WNkuqnyzK4FkFxuNmjLf">
    <mxGraphModel>
      <root>
        <mxCell id="0" />
        <mxCell id="1" parent="0" />
      </root>
    </mxGraphModel>
  </diagram>
</mxfile>
